<?xml version="1.0" encoding="iso-8859-1"?>
<!-- Generator: Adobe Illustrator 18.0.0, SVG Export Plug-In . SVG Version: 6.00 Build 0)  -->
<!DOCTYPE svg PUBLIC "-//W3C//DTD SVG 1.1//EN" "http://www.w3.org/Graphics/SVG/1.1/DTD/svg11.dtd">
<svg version="1.1" id="Capa_1" xmlns="http://www.w3.org/2000/svg" xmlns:xlink="http://www.w3.org/1999/xlink" x="0px" y="0px"
	 viewBox="0 0 454.389 454.389" style="enable-background:new 0 0 454.389 454.389;" xml:space="preserve">
<g>
	<path d="M312.756,190.435v63.755c0,4.142,3.357,7.5,7.5,7.5s7.5-3.358,7.5-7.5v-63.755c0-47.03-33.422-88.021-79.471-97.469
		c-4.048-0.833-8.021,1.782-8.854,5.84c-0.833,4.058,1.782,8.022,5.84,8.854C284.374,115.682,312.756,150.494,312.756,190.435z"/>
	<path d="M327.177,278.323c-1.185-2.968-4.307-4.84-7.474-4.61c-3.079,0.223-5.75,2.385-6.631,5.336
		c-1.913,6.405,5.276,12,11.034,8.569C327.242,285.75,328.605,281.698,327.177,278.323
		C326.997,277.873,327.367,278.773,327.177,278.323z"/>
	<path d="M408.555,435.632l-34.602-35.093h14.506c4.143,0,7.5-3.358,7.5-7.5v-32.254c0-27.625-18.181-51.077-43.203-59.038V190.435
		c0-54.969-35.813-101.726-85.331-118.177c4.896-7.521,7.584-16.364,7.584-25.507c0-25.778-20.972-46.75-46.75-46.75
		s-46.75,20.972-46.75,46.75c0,9.146,2.689,17.988,7.587,25.508c-32.718,10.871-59.447,34.973-73.82,65.933L56.516,78.596
		c-2.91-2.95-7.659-2.982-10.606-0.075c-2.949,2.908-2.983,7.657-0.075,10.606l63.514,64.415c-3.625,11.662-5.58,24.052-5.58,36.891
		v111.313c-25.022,7.961-43.203,31.413-43.203,59.038v32.254c0,4.142,3.357,7.5,7.5,7.5h99.323
		c3.713,30.301,29.587,53.85,60.875,53.85s57.162-23.549,60.875-53.85h63.75l44.986,45.625c1.468,1.488,3.404,2.234,5.341,2.234
		c1.902,0,3.805-0.719,5.266-2.159C411.429,443.33,411.463,438.582,408.555,435.632z M380.959,360.785v24.754h-21.796
		l-46.043-46.697h20.897c12.099,0,21.942,9.843,21.942,21.942v7.254c0,4.142,3.357,7.5,7.5,7.5s7.5-3.358,7.5-7.5v-7.254
		c0-20.37-16.572-36.942-36.942-36.942H298.33l-9.86-10h45.547C359.901,313.843,380.959,334.901,380.959,360.785z M196.509,46.75
		c0-17.507,14.243-31.75,31.75-31.75s31.75,14.243,31.75,31.75c0,7.957-2.995,15.583-8.311,21.413
		c-7.594-1.452-15.426-2.222-23.437-2.222c-8.01,0-15.843,0.77-23.436,2.222C199.505,62.335,196.509,54.71,196.509,46.75z
		 M228.262,80.941c60.375,0,109.494,49.119,109.494,109.494v108.408H273.68L126.629,149.705
		C142.823,109.441,182.274,80.941,228.262,80.941z M118.768,298.843V190.435c0-8.43,0.959-16.639,2.771-24.527l131.074,132.935
		H118.768z M228.262,439.389c-23.004,0-42.138-16.847-45.734-38.85h91.468C270.4,422.542,251.266,439.389,228.262,439.389z
		 M75.565,385.539v-24.754c0-25.884,21.059-46.942,46.942-46.942h144.897l9.86,10h-54.566c-4.143,0-7.5,3.358-7.5,7.5
		s3.357,7.5,7.5,7.5h69.356l46.043,46.697H75.565z"/>
</g>
<g>
</g>
<g>
</g>
<g>
</g>
<g>
</g>
<g>
</g>
<g>
</g>
<g>
</g>
<g>
</g>
<g>
</g>
<g>
</g>
<g>
</g>
<g>
</g>
<g>
</g>
<g>
</g>
<g>
</g>
</svg>
